<svg version="1.1" xmlns="http://www.w3.org/2000/svg" viewBox="-252.97724167196293 -296.7827588986196 506.3774515769155 684.6882226142644" fill="none" stroke="black" stroke-width="0.6%" vector-effect="non-scaling-stroke">
    <path d="M 222.46676 63.69771 L 222.46676 -26.61006 L -0.00873 -222.32188 L -51.6613 -195.85471" />
    <path d="M -70.30736 345.74073 L -29.92472 325.04836 L 40.39136 386.90546 L 40.39136 198.6651 L 252.40021 90.03018 L 182.08412 28.17308" />
    <path d="M -29.92472 136.80799 L -29.92472 325.04836" />
    <path d="M -29.92472 136.80799 L 182.08412 28.17308" />
    <path d="M -70.30736 123.40958 L 222.46676 -26.61006" />
    <path d="M -70.30736 345.74073 L -70.30736 123.40958" />
    <path d="M -111.6613 -165.11026 L -212.01757 -113.68696 A 101.6 68.21327 180 0 0 -251.97724 -59.46192 L -251.97724 162.86922 A 101.6 68.21327 180 0 0 -231.14252 204.25395 L -231.14252 -18.0772 L -70.30736 123.40958" />
    <path d="M -231.14252 204.25395 L -70.30736 345.74073" />
    <path d="M 40.39136 386.90546 L 252.40021 278.27055 L 252.40021 90.03018" />
    <path d="M -251.97724 -59.46192 A 101.6 68.21327 180 0 0 -231.14252 -18.0772" />
    <path d="M -105.50932 -78.14519 A 30 20.14171 0 0 1 -111.6613 -90.36509" />
    <path d="M -51.6613 -90.36509 A 30 20.14171 0 0 1 -105.50932 -78.14519" />
    <path d="M -29.92472 136.80799 L 40.39136 198.6651" />
    <path d="M -105.50932 -263.42114 A 30 20.14171 0 0 1 -111.6613 -275.64104 L -111.6613 -90.36509" />
    <path d="M -111.6613 -275.64104 A 30 20.14171 0 0 1 -51.6613 -275.64104 L -51.6613 -90.36509" />
    <path d="M -51.6613 -275.64104 A 30 20.14171 0 0 1 -105.50932 -263.42114" />
</svg>