<svg version="1.1" xmlns="http://www.w3.org/2000/svg" viewBox="-267.76956864881146 -328.08456495597744 569.428927932514 698.3538846549095" fill="none" stroke="black" stroke-width="0.6%" vector-effect="non-scaling-stroke">
    <path d="M -47.86248 -294.82896 A 30 20.54282 360 0 1 -53.21657 -306.54175 A 30 20.54282 360 0 1 6.78343 -306.54175 A 30 20.54282 360 0 1 -47.86248 -294.82896 Z" />
    <path d="M -47.86248 -112.63694 A 30 20.54282 180 0 0 6.78343 -124.34972" />
    <path d="M -53.21657 -124.34972 A 30 20.54282 180 0 0 -47.86248 -112.63694" />
    <path d="M 205.08324 -57.80867 L 6.78343 -253.46082" />
    <path d="M -53.21657 -240.70473 L -223.09828 -159.96974 A 101.6 69.57168 180 0 0 -266.76957 -102.81448 A 101.6 69.57168 180 0 0 -248.63707 -63.14719 L -97.48647 85.98528 L 205.08324 -57.80867" />
    <path d="M 205.08324 -24.28534 L 205.08324 -57.80867" />
    <path d="M -266.76957 115.81595 A 101.6 69.57168 180 0 0 -248.63707 155.48324 L -97.48647 304.61571 L -13.03313 264.4799 L 81.55716 357.80724 L 81.55716 172.70014 L 300.65936 68.57349 L 205.08324 -25.72652" />
    <path d="M -97.48647 304.61571 L -97.48647 85.98528" />
    <path d="M -13.03313 79.37281 L -13.03313 264.4799" />
    <path d="M -13.03313 79.37281 L 205.08324 -24.28534" />
    <path d="M -13.03313 79.37281 L 81.55716 172.70014" />
    <path d="M 81.55716 357.80724 L 300.65936 253.68058 L 300.65936 68.57349" />
    <path d="M 86.48634 174.73019 L 295.73017 75.28865" />
    <path d="M 86.48634 174.73019 L 86.48634 351.09207 L 87.3986 351.99216 L 87.3986 175.63028 L 296.64244 76.18874 L 295.73017 75.28865" />
    <path d="M 248.51618 289.65648 A 12.5 8.55951 180 0 0 253.88912 282.62458 L 253.88912 275.90778" />
    <path d="M 230.61753 286.96743 A 12.5 8.55951 180 0 0 248.51618 289.65648" />
    <path d="M 84.21006 367.74171 A 12.5 8.55951 180 0 0 89.58301 360.70981 L 89.58301 353.99302" />
    <path d="M 64.58301 360.70981 A 12.5 8.55951 180 0 0 84.21006 367.74171" />
    <path d="M 86.48634 174.73019 L 87.3986 175.63028" />
    <path d="M 296.64244 252.55062 L 296.64244 76.18874" />
    <path d="M 87.3986 351.99216 L 296.64244 252.55062" />
    <path d="M 130.40573 279.08204 L 130.40573 322.80813 L 132.4013 324.77706 L 255.63089 266.21314 L 255.63089 222.48705 L 132.4013 281.05098 L 132.4013 324.77706" />
    <path d="M 253.63531 220.51812 L 130.40573 279.08204 L 132.4013 281.05098" />
    <path d="M 253.63531 220.51812 L 255.63089 222.48705" />
    <path d="M -248.63707 155.48324 L -248.63707 -63.14719" />
    <path d="M -53.21657 -306.54175 L -53.21657 -124.34972" />
    <path d="M 6.78343 -306.54175 L 6.78343 -124.34972" />
    <path d="M -266.76957 -102.81448 L -266.76957 115.81595" />
    <path d="M 64.58301 360.70981 L 64.58301 341.05973" />
</svg>