<svg version="1.1" xmlns="http://www.w3.org/2000/svg" viewBox="-267.76965163234803 -328.0846113474723 569.4291157577165 698.3539158008875" fill="none" stroke="black" stroke-width="0.6%" vector-effect="non-scaling-stroke">
    <path d="M 205.08321 -57.80881 L 6.78332 -253.46053" />
    <path d="M 205.08321 -24.28546 L 205.08321 -57.80881" />
    <path d="M 300.65946 68.57324 L 205.08321 -25.72665" />
    <path d="M 81.5574 172.69997 L 300.65946 68.57324" />
    <path d="M -13.03301 79.37275 L 81.5574 172.69997" />
    <path d="M -13.03301 79.37275 L 205.08321 -24.28546" />
    <path d="M -97.4863 304.61579 L -13.03301 264.47996 L 81.5574 357.80717 L 81.5574 172.69997" />
    <path d="M -248.6371 155.48352 L -97.4863 304.61579 L -97.4863 85.98524 L 205.08321 -57.80881" />
    <path d="M -266.76965 115.81619 A 101.6 69.57163 180 0 0 -248.6371 155.48352 L -248.6371 -63.14704 L -97.4863 85.98524" />
    <path d="M 81.5574 357.80717 L 300.65946 253.68044 L 300.65946 68.57324" />
    <path d="M -53.21668 -240.70467 L -223.09844 -159.96955 A 101.6 69.57163 180 0 0 -266.76965 -102.81436 A 101.6 69.57163 180 0 0 -248.6371 -63.14704" />
    <path d="M -47.86258 -112.63688 A 30 20.5428 0 0 1 -53.21668 -124.34968" />
    <path d="M 6.78332 -124.34968 A 30 20.5428 0 0 1 -47.86258 -112.63688" />
    <path d="M -13.03301 79.37275 L -13.03301 264.47996" />
    <path d="M 86.48658 174.73002 L 295.73028 75.28841" />
    <path d="M 86.48658 174.73002 L 86.48658 351.092 L 87.39885 351.99208 L 296.64255 252.55047 L 296.64255 76.18849 L 295.73028 75.28841" />
    <path d="M 230.6176 286.96735 A 12.5 8.5595 180 0 0 253.8892 282.62452 L 253.8892 275.90769" />
    <path d="M 64.58319 360.7098 A 12.5 8.5595 180 0 0 89.58319 360.7098 L 89.58319 353.99297" />
    <path d="M -47.86258 -294.82901 A 30 20.5428 0 0 1 -53.21668 -306.54181 L -53.21668 -124.34968" />
    <path d="M -53.21668 -306.54181 A 30 20.5428 0 0 1 6.78332 -306.54181 L 6.78332 -124.34968" />
    <path d="M 6.78332 -306.54181 A 30 20.5428 0 0 1 -47.86258 -294.82901" />
    <path d="M 87.39885 175.6301 L 296.64255 76.18849" />
    <path d="M 86.48658 174.73002 L 87.39885 175.6301" />
    <path d="M 87.39885 351.99208 L 87.39885 175.6301" />
    <path d="M 130.40594 279.08193 L 130.40594 322.80804 L 132.40152 324.77697 L 255.63103 266.213 L 255.63103 222.48689 L 132.40152 281.05086 L 132.40152 324.77697" />
    <path d="M 253.63545 220.51796 L 130.40594 279.08193 L 132.40152 281.05086" />
    <path d="M 253.63545 220.51796 L 255.63103 222.48689" />
    <path d="M -266.76965 -102.81436 L -266.76965 115.81619" />
    <path d="M 64.58319 360.7098 L 64.58319 341.05964" />
</svg>